<?xml version="1.0" encoding="UTF-8" standalone="no"?>
<!-- Created with Inkscape (http://www.inkscape.org/) -->

<svg
   version="1.1"
   id="svg824"
   width="301"
   height="167"
   viewBox="0 0 301 167"
   sodipodi:docname="HeyGeek.svg"
   inkscape:version="1.1 (c68e22c387, 2021-05-23)"
   xmlns:inkscape="http://www.inkscape.org/namespaces/inkscape"
   xmlns:sodipodi="http://sodipodi.sourceforge.net/DTD/sodipodi-0.dtd"
   xmlns="http://www.w3.org/2000/svg"
   xmlns:svg="http://www.w3.org/2000/svg">
  <defs
     id="defs828" />
  <sodipodi:namedview
     id="namedview826"
     pagecolor="#ffffff"
     bordercolor="#666666"
     borderopacity="1.0"
     inkscape:pageshadow="2"
     inkscape:pageopacity="0.0"
     inkscape:pagecheckerboard="0"
     showgrid="false"
     inkscape:zoom="2.4684385"
     inkscape:cx="150.5"
     inkscape:cy="81.225437"
     inkscape:window-width="1366"
     inkscape:window-height="705"
     inkscape:window-x="-8"
     inkscape:window-y="-8"
     inkscape:window-maximized="1"
     inkscape:current-layer="g830" />
  <g
     inkscape:groupmode="layer"
     inkscape:label="Image"
     id="g830">
    <g
       id="g36044">
      <rect
         style="fill:#464646;fill-opacity:1;fill-rule:evenodd;stroke:none;stroke-width:0.312941;stroke-opacity:1"
         id="rect26434"
         width="178.03525"
         height="149.47823"
         x="58.898884"
         y="6.6930547" />
      <path
         style="fill:#000000;fill-opacity:1;stroke:#000000;stroke-width:1px;stroke-linecap:butt;stroke-linejoin:miter;stroke-opacity:1"
         d="m 102.64711,102.3846 c 5.87291,-3.721721 9.33036,-11.308183 9.25872,-24.541197 11.6013,-4.661781 23.20259,-4.100866 34.80389,-0.446204 21.00972,-6.805361 27.58921,-3.247442 36.03094,-0.892407 0.93171,6.58362 2.48936,13.793187 8.70097,25.656708 1.55312,-20.754443 3.4296,-35.68845 5.57755,-45.735873 l 2.23102,5.242893 c 0.32529,-1.893614 0.97629,-5.350655 -0.11155,-11.04354 l 8.25476,7.808564 c -1.81665,-6.48268 -4.32097,-12.838683 -11.71284,-18.29435 l 12.9399,2.900324 C 202.7402,35.33374 195.10555,28.109556 168.12749,26.19533 l 5.13134,-2.900324 c -34.09531,-7.099987 -49.52924,4.461392 -63.36091,17.625045 l -0.11156,-5.689097 -3.12342,5.465995 -3.01188,-8.924073 c -20.270668,39.040596 -0.0437,36.505358 -1.00395,70.611724 z"
         id="path982"
         sodipodi:nodetypes="cccccccccccccccccc" />
      <path
         style="fill:#000000;fill-opacity:1;stroke:#000000;stroke-width:1px;stroke-linecap:butt;stroke-linejoin:miter;stroke-opacity:1"
         d="m 100.10419,106.72251 0.15775,8.83438 3.31289,1.73533 c 3.13792,23.17803 39.09469,21.36836 40.54351,-2.36635 2.62928,-0.94087 5.25856,-1.55072 7.88784,0 1.86215,23.91252 39.79816,23.76897 41.49004,2.20859 l 2.99738,-1.1043 0.15776,-8.0456 c -16.55267,-6.41062 -31.29983,-6.05062 -44.48743,0.15776 h -8.36111 c -14.06115,-5.77645 -28.80425,-4.39237 -43.69863,-1.41981 z"
         id="path2848"
         sodipodi:nodetypes="ccccccccccc" />
      <path
         style="fill:#464646;fill-opacity:1;stroke:none;stroke-width:0.944256px;stroke-linecap:butt;stroke-linejoin:miter;stroke-opacity:1"
         d="m 139.30567,110.80551 c 3.4305,26.83429 -37.94592,24.3753 -31.9365,-0.52458 8.15854,-4.68801 19.63094,-5.37686 31.9365,0.52458 z"
         id="path4962"
         sodipodi:nodetypes="ccc" />
      <path
         style="fill:#464646;fill-opacity:1;stroke:none;stroke-width:0.960986px;stroke-linecap:butt;stroke-linejoin:miter;stroke-opacity:1"
         d="m 156.72579,110.49059 c -3.15015,26.10787 36.55939,26.42935 32.67259,-0.53109 -8.34658,-4.74621 -20.89036,-7.04079 -32.67259,0.53109 z"
         id="path4962-6"
         sodipodi:nodetypes="ccc" />
      <path
         style="fill:none;stroke:#000000;stroke-width:1px;stroke-linecap:butt;stroke-linejoin:miter;stroke-opacity:1"
         d="m 145.91882,128.72821 -2.83962,10.41195 7.57233,-0.94654 v 0"
         id="path6882" />
      <text
         xml:space="preserve"
         style="font-style:normal;font-variant:normal;font-weight:normal;font-stretch:normal;font-size:17.3333px;line-height:1.25;font-family:Arial;-inkscape-font-specification:Arial;fill:#31ff00;fill-opacity:1;stroke:none;stroke-width:0.974633;stroke-opacity:1"
         x="108.4549"
         y="121.60249"
         id="text17440"
         transform="scale(0.992479,1.007578)"><tspan
           sodipodi:role="line"
           id="tspan17438"
           x="108.4549"
           y="121.60249"
           style="font-size:17.3333px;stroke-width:0.974633">Hey</tspan><tspan
           sodipodi:role="line"
           x="108.4549"
           y="143.26917"
           style="font-size:17.3333px;stroke-width:0.974633"
           id="tspan32267" /></text>
      <text
         xml:space="preserve"
         style="font-style:normal;font-variant:normal;font-weight:normal;font-stretch:normal;font-size:15.5637px;line-height:1.25;font-family:Arial;-inkscape-font-specification:Arial;fill:#0dff00;fill-opacity:1;stroke:none;stroke-width:0.972733"
         x="159.90802"
         y="118.70911"
         id="text23536"
         transform="scale(0.97273275,1.0280316)"><tspan
           sodipodi:role="line"
           id="tspan23534"
           x="159.90802"
           y="118.70911"
           style="fill:#0dff00;fill-opacity:1;stroke-width:0.972733">Geek</tspan></text>
    </g>
  </g>
</svg>
