<?xml version="1.0" encoding="UTF-8"?>
<svg id="SVGRoot" width="800px" height="600px" version="1.1" viewBox="0 0 800 600" xmlns="http://www.w3.org/2000/svg" xmlns:cc="http://creativecommons.org/ns#" xmlns:dc="http://purl.org/dc/elements/1.1/" xmlns:rdf="http://www.w3.org/1999/02/22-rdf-syntax-ns#">
 <metadata>
  <rdf:RDF>
   <cc:Work rdf:about="">
    <dc:format>image/svg+xml</dc:format>
    <dc:type rdf:resource="http://purl.org/dc/dcmitype/StillImage"/>
    <dc:title/>
   </cc:Work>
  </rdf:RDF>
 </metadata>
 <g transform="matrix(4.8029 0 0 3.8723 -97.84 -186.34)">
  <circle d="m 173.94788,143.86652 a 71.270309,75.595238 0 0 1 -85.729113,55.93853 71.270309,75.595238 0 0 1 -52.975261,-90.77629 71.270309,75.595238 0 0 1 85.435874,-56.441 71.270309,75.595238 0 0 1 53.44818,90.46386" fill="#292929" stroke="#7f7f7f" stroke-linecap="round" stroke-width="1.8619"/>
  <path d="m54.79 146.86c1.6353-8.2369-1.197-18.048-4.2276-28.424-2.7763-9.5047-3.3948-19.523-2.7214-28.772 1.5172-2.5964 5.4257-9.1146 6.4145-14.032 1.4151 3.4745 0.83022 6.949 4.2763 10.424-0.8242-2.8101 0.32987-5.2904 1.6036-7.7508 0.03803 2.4054-0.83426 4.8108 1.8709 7.2163 20.599-22.846 43.312-21.988 62.274-19.243-2.3809 1.215-7.4627 1.0795-5.3454 4.5436 14.522 0.72595 29.043 1.0398 43.565 13.898-6.3586-1.2665-14-3.2754-13.898-0.80181 9.6034 4.7397 9.1858 11.149 13.096 16.838-4.1567-3.7062-10.03-10.185-9.889-6.949 2.4599 3.3376 3.4113 7.178 3.7418 11.225-2.0768-3.7916-3.7131-5.38-5.0781-5.6127 0.38432 16.045-4.5203 30.776-4.009 46.505-5.8234-7.2554-8.0857-15.984-9.3544-25.123-13.052-5.4516-23.241-5.2041-35.28 0.80181-10.73-5.3847-28.617-5.0424-38.754-0.80181 1.7511 3.8686-3.3002 27.365-8.2854 26.059z" stroke="#fff" stroke-width=".26458px"/>
  <g stroke-width=".26458px">
   <path d="m52.539 152.7-0.09449 7.7485c1.0394-0.23382 2.0789 0.21524 3.1183 1.2284 0.64435 6.6164 2.1708 12.057 5.4807 15.119 4.2131 1.9388 9.7959 2.1655 15.403 2.3624 6.2224-0.51817 12.068-1.4136 16.347-3.8742 2.2105-4.8672 3.3318-9.7305 4.7247-15.119 0.95071-0.87271 1.5357-2.3306 3.3073-1.8899 1.8705-0.0521 3.3288 0.46256 3.7798 2.3624 1.103 5.329 2.9453 10.113 5.1027 14.741 6.2638 2.9965 13.054 3.7438 20.282 3.6022 13.334 1.2271 15.131-5.7363 16.375-16.875 0.8982-1.3594 2.096-1.8199 3.3464-2.1228l-0.22141-7.2828c-5.2478-1.8787-10.427-3.3468-15.497-4.1577-4.2587-0.76983-8.392-0.66139-12.473-0.18899-6.3814 0.0371-11.025 2.4638-16.064 4.3467-2.6104 0.0164-4.5622 0.14258-8.1265 0-3.4838-1.2534-5.9226-3.1118-10.205-3.7798-6.9355-1.4154-13.432-0.63699-20.033-0.37798-4.5956 0.70555-9.4222 2.0274-14.552 4.1577z" stroke="#f3eded"/>
   <path d="m98.689 177.33c-1.2448 2.2025-2.5096 4.3993-2.5391 6.949 0.31516 0.79255-0.05914 2.043 2.0713 3.4077 1.6163 0.77904 3.0308 0.14586 4.4768-0.26727-2.4705-0.40402-3.7639-1.5571-4.2763-3.2072-0.86464-2.2941 0.16017-4.5881 0.26727-6.8822z" stroke="#919191"/>
  </g>
  <g fill="#00ff00" font-family="sans-serif">
   <text transform="scale(.83562 1.1967)" x="69.693192" y="143.8289" font-size="20.601px" stroke-width=".32189" style="line-height:1.25" xml:space="preserve"><tspan x="69.693192" y="143.8289" fill="#00ff00" font-size="20.601px" stroke-width=".32189">HEY </tspan></text>
   <text font-size="16.933px" style="line-height:1.25;shape-inside:url(#rect43);white-space:pre" xml:space="preserve"><tspan x="109.3125" y="185.69876" visibility="hidden"><tspan fill="#00ff00" font-size="16.933px">a</tspan></tspan></text>
   <text transform="scale(.69432 1.4403)" x="158.61372" y="119.0603" font-size="17.169px" stroke-width=".26826" style="line-height:1.25" xml:space="preserve"><tspan x="158.61372" y="119.0603">GEEK</tspan><tspan x="158.61372" y="140.52142"/></text>
  </g>
 </g>
</svg>
